<?xml version="1.0" encoding="utf-8"?>
<!-- Generator: Adobe Illustrator 24.0.2, SVG Export Plug-In . SVG Version: 6.00 Build 0)  -->
<svg version="1.1" id="Capa_1" xmlns="http://www.w3.org/2000/svg" xmlns:xlink="http://www.w3.org/1999/xlink" x="0px" y="0px"
	 viewBox="0 0 2500 2500" style="enable-background:new 0 0 2500 2500;" xml:space="preserve">
<style type="text/css">
	.st0{fill-rule:evenodd;clip-rule:evenodd;fill:#482C00;}
</style>
<path class="st0" d="M1214.15,88.32c19.72,23.55,51.97,23.55,71.69,0l40.92-48.87c19.69-23.55,48.24-20.98,63.46,5.73l31.52,55.42
	c15.2,26.67,46.91,32.43,70.53,12.77l48.99-40.78c23.59-19.66,51.22-12.01,61.39,16.92l21.16,60.17
	c10.15,28.96,40.35,40.24,67.08,25.15l55.49-31.36c26.73-15.13,52.53-2.68,57.38,27.62l10.05,62.97
	c4.84,30.33,32.54,46.86,61.52,36.77l60.23-21c28.98-10.08,52.17,6.74,51.54,37.45l-1.35,63.74c-0.66,30.7,23.62,51.91,53.94,47.16
	l63-9.9c30.33-4.74,50.13,15.97,44.03,46.05l-12.69,62.47c-6.16,30.11,13.98,55.32,44.66,56.04l63.72,1.52
	c30.71,0.74,46.48,24.64,35.08,53.13l-23.62,59.2c-11.4,28.52,3.86,56.92,33.95,63.12l62.44,12.87
	c30.08,6.19,41.33,32.55,25.03,58.57l-33.82,54.01c-16.31,26.05-6.34,56.69,22.11,68.17l59.17,23.82
	c28.46,11.46,34.83,39.4,14.16,62.08l-42.96,47.13c-20.69,22.71-16.34,54.67,9.61,71.05l53.96,33.98
	c25.95,16.35,27.23,44.99,2.85,63.63l-50.68,38.67c-24.4,18.67-25.87,50.86-3.2,71.61l46.99,43.08
	c22.67,20.73,18.8,49.15-8.57,63.12l-56.78,29.03c-27.32,13.95-34.48,45.39-15.92,69.88l38.56,50.77
	c18.56,24.43,9.7,51.68-19.69,60.55l-61.03,18.44c-29.39,8.83-42.05,38.53-28.17,65.91l28.89,56.83
	c13.88,27.39,0.31,52.61-30.18,56.09l-63.37,7.2c-30.5,3.51-48.27,30.42-39.48,59.83l18.25,61.06c8.77,29.44-9.1,51.86-39.75,49.82
	l-63.57-4.17c-30.65-2.07-52.95,21.23-49.53,51.78l7.06,63.35c3.39,30.53-18.21,49.38-47.98,41.91l-61.84-15.49
	c-29.78-7.48-55.88,11.48-58.01,42.07l-4.34,63.61c-2.1,30.68-26.73,45.36-54.68,32.67l-58.1-26.25
	c-27.95-12.66-57.03,1.3-64.57,31.09l-15.65,61.79c-7.54,29.73-34.39,39.81-59.63,22.38l-52.47-36.26
	c-25.26-17.44-56.34-8.84-69.09,19.08l-26.47,58.02c-12.72,27.92-40.92,33.06-62.65,11.36l-45.13-44.99
	c-21.76-21.7-53.88-18.8-71.38,6.39l-36.4,52.38c-17.52,25.19-46.17,25.19-63.66,0l-36.4-52.38c-17.52-25.19-49.62-28.09-71.35-6.39
	l-45.15,44.99c-21.73,21.7-49.94,16.57-62.66-11.36l-26.44-58.02c-12.75-27.92-43.81-36.52-69.09-19.08l-52.46,36.26
	c-25.26,17.44-52.11,7.36-59.65-22.38l-15.65-61.79c-7.54-29.79-36.58-43.75-64.57-31.09l-58.1,26.25
	c-27.95,12.69-52.57-1.99-54.68-32.67l-4.35-63.61c-2.1-30.59-28.2-49.55-57.98-42.07l-61.82,15.49
	c-29.81,7.45-51.4-11.39-47.98-41.91l7.05-63.35c3.4-30.56-18.87-53.85-49.53-51.78l-63.6,4.17c-30.64,2.04-48.52-20.38-39.72-49.82
	l18.25-61.06c8.81-29.41-8.98-56.34-39.48-59.83l-63.35-7.2c-30.5-3.49-44.08-28.7-30.18-56.09l28.87-56.83
	c13.9-27.39,1.23-57.09-28.17-65.91l-61.03-18.44c-29.39-8.87-38.27-36.12-19.69-60.55l38.57-50.77
	c18.56-24.49,11.39-55.92-15.95-69.88l-56.78-29.03c-27.34-13.98-31.19-42.4-8.55-63.12l47.02-43.08
	c22.62-20.75,21.18-52.95-3.22-71.61L39.7,1225.1c-24.4-18.64-23.11-47.28,2.87-63.63l53.93-33.98
	c25.98-16.38,30.33-48.34,9.62-71.05l-42.96-47.13c-20.69-22.68-14.3-50.63,14.18-62.08l59.14-23.82
	c28.47-11.48,38.47-42.11,22.14-68.17l-33.85-54.01c-16.29-26.04-5.03-52.38,25.04-58.57l62.45-12.87
	c30.05-6.21,45.35-34.6,33.95-63.12l-23.65-59.2c-11.42-28.49,4.4-52.4,35.08-53.13l63.74-1.52c30.7-0.72,50.8-25.93,44.69-56.04
	l-12.7-62.47c-6.11-30.08,13.69-50.79,44.01-46.05l62.99,9.9c30.33,4.75,54.6-16.46,53.96-47.16l-1.33-63.74
	c-0.66-30.7,22.54-47.54,51.52-37.45l60.2,21c29.01,10.1,56.67-6.45,61.53-36.77l10.05-62.97c4.83-30.3,30.68-42.74,57.39-27.62
	l55.49,31.36c26.74,15.1,56.92,3.82,67.09-25.15l21.13-60.17c10.19-28.95,37.81-36.58,61.41-16.92l48.99,40.78
	c23.6,19.66,55.31,13.88,70.51-12.77l31.54-55.42c15.2-26.7,43.74-29.27,63.45-5.73L1214.15,88.32L1214.15,88.32z"/>
</svg>
