<?xml version="1.0" encoding="utf-8"?>
<!-- Generator: Adobe Illustrator 24.0.2, SVG Export Plug-In . SVG Version: 6.00 Build 0)  -->
<svg version="1.1" id="Capa_1" xmlns="http://www.w3.org/2000/svg" xmlns:xlink="http://www.w3.org/1999/xlink" x="0px" y="0px"
	 viewBox="0 0 2000 219" style="enable-background:new 0 0 2000 219;" xml:space="preserve">
<style type="text/css">
	.st0{fill:#FFEE00;}
	.st1{fill:#FF5200;}
</style>
<g>
	<path class="st0" d="M-16.5,521.5V-8.87c0-4.21,3.42-7.63,7.63-7.63h2017.75c4.21,0,7.63,3.42,7.63,7.63V521.5H-16.5z"/>
	<path d="M2008.87-16c3.93,0,7.13,3.2,7.13,7.13V521H-16V-8.87C-16-12.8-12.8-16-8.87-16H2008.87 M2008.87-17H-8.87
		C-13.36-17-17-13.36-17-8.87V522h2034V-8.87C2017-13.36,2013.36-17,2008.87-17L2008.87-17z"/>
</g>
<path class="st1" d="M1006.17,196.35l12.11-15.63c3.22-4.16,9.48-4.2,12.77-0.1l12.36,15.44c3.32,4.15,9.66,4.05,12.84-0.2
	l11.87-15.82c3.16-4.21,9.41-4.35,12.76-0.3l12.6,15.24c3.38,4.09,9.72,3.89,12.84-0.4l11.62-16c3.09-4.25,9.34-4.5,12.76-0.5
	l12.84,15.04c3.45,4.04,9.78,3.74,12.83-0.61l11.36-16.18c3.02-4.3,9.27-4.65,12.75-0.7l13.07,14.84c3.51,3.98,9.84,3.59,12.82-0.81
	l11.11-16.36c2.95-4.35,9.2-4.79,12.73-0.9l13.3,14.63c3.57,3.93,9.89,3.43,12.8-1.01l10.85-16.53c2.88-4.39,9.12-4.93,12.72-1.1
	l13.53,14.42c3.63,3.87,9.94,3.28,12.79-1.21l10.59-16.7c2.82-4.44,9.04-5.08,12.7-1.3l13.76,14.2c3.69,3.81,9.99,3.12,12.77-1.41
	l10.33-16.86c2.75-4.48,8.96-5.22,12.68-1.5l13.98,13.99c3.75,3.76,10.04,2.96,12.74-1.61l10.06-17.02
	c2.67-4.53,8.88-5.36,12.65-1.7l14.2,13.77c3.81,3.7,10.09,2.8,12.72-1.81l9.79-17.18c2.6-4.57,8.79-5.5,12.62-1.9l14.41,13.54
	c3.87,3.64,10.13,2.64,12.69-2.01l9.52-17.33c2.53-4.61,8.71-5.64,12.59-2.1l14.62,13.31c3.93,3.57,10.17,2.49,12.65-2.21
	l9.25-17.48c2.46-4.65,8.62-5.77,12.56-2.29l14.83,13.08c3.98,3.51,10.21,2.33,12.62-2.41l8.97-17.62
	c2.39-4.68,8.52-5.91,12.52-2.49l15.03,12.85c4.04,3.45,10.24,2.16,12.58-2.6l8.69-17.76c2.31-4.72,8.43-6.04,12.48-2.69
	l15.23,12.61c4.09,3.39,10.28,2,12.54-2.8l8.41-17.89c2.24-4.76,8.33-6.17,12.44-2.88l15.43,12.37c4.14,3.32,10.31,1.84,12.49-3
	l8.13-18.02c2.16-4.79,8.24-6.3,12.39-3.08l15.62,12.12c4.19,3.26,10.33,1.68,12.44-3.19l7.85-18.15c2.09-4.83,8.14-6.43,12.34-3.27
	l15.81,11.88c4.25,3.19,10.36,1.52,12.39-3.39l7.56-18.27c2.01-4.86,8.03-6.56,12.29-3.47l15.99,11.63
	c4.29,3.12,10.38,1.35,12.33-3.58l7.27-18.39c1.93-4.89,7.93-6.68,12.23-3.66l16.17,11.38c4.34,3.05,10.4,1.19,12.28-3.78l6.98-18.5
	c1.86-4.92,7.82-6.81,12.17-3.85l16.35,11.12c4.39,2.99,10.42,1.03,12.22-3.97l6.69-18.61c1.78-4.95,7.72-6.93,12.11-4.04
	l16.52,10.86c4.44,2.92,10.43,0.86,12.15-4.16l6.4-18.71c1.7-4.97,7.61-7.05,12.04-4.23l16.69,10.6c4.48,2.85,10.45,0.7,12.09-4.35
	l6.1-18.81c1.62-5,7.5-7.17,11.98-4.42l16.86,10.34c4.53,2.78,10.46,0.54,12.02-4.54l5.81-18.9c1.54-5.03,7.38-7.28,11.91-4.61
	l17.02,10.07c4.57,2.7,10.46,0.37,11.94-4.73l8.39-28.9l35.23,20.11l10.69-39.14l35.55,19.56l10.08-39.3l35.85,19l9.46-39.45
	l36.14,18.43l8.84-39.6l36.43,17.86l8.21-39.73l36.7,17.29l7.59-39.85l36.97,16.71l6.96-39.97l37.23,16.12l6.33-40.07l37.48,15.54
	l5.7-40.17l37.72,14.95l5.07-40.25l37.95,14.35l4.44-40.33l38.17,13.76l3.81-40.39l38.38,13.15l3.17-40.45l38.58,12.55l2.53-40.49
	l38.77,11.94l1.9-40.53l38.96,11.33l1.26-40.55l39.13,10.72l0.62-40.57l39.29,10.1l-0.01-40.57l39.45,9.48l-0.65-40.57l39.59,8.86
	l-1.29-40.55l39.73,8.24l-1.92-40.53l39.85,7.61l-2.56-40.49l39.96,6.99l-3.2-40.44l40.07,6.36l-3.83-40.39l40.16,5.73l-4.46-40.32
	l40.25,5.1l-5.1-40.25l40.32,4.46l-5.73-40.16l40.39,3.83l-6.36-40.07l40.44,3.2l-6.99-39.96l40.49,2.56l-7.61-39.85l40.53,1.92
	l-8.24-39.73l40.55,1.29l-8.86-39.59l40.57,0.65l-9.48-39.45l40.57,0.01l-10.1-39.29l40.57-0.62l-10.72-39.13l40.55-1.26
	l-11.33-38.96l40.53-1.9l-11.94-38.77l40.49-2.53l-12.55-38.58l40.45-3.17l-13.15-38.38l40.39-3.81l-13.75-38.17l40.33-4.44
	l-14.35-37.95l40.25-5.07l-14.95-37.72l40.17-5.7l-15.54-37.48l40.07-6.33l-16.12-37.23l39.97-6.96l-16.71-36.97l39.85-7.59
	l-17.29-36.7l39.73-8.21l-17.86-36.43l39.6-8.84l-18.43-36.14l39.45-9.46l-19-35.85l39.3-10.08l-19.56-35.55l39.14-10.69
	l-20.11-35.23l38.96-11.31l-20.66-34.91l38.78-11.92l-21.21-34.59l38.59-12.52l-21.75-34.25l38.39-13.13l-22.29-33.9l38.18-13.73
	l-22.81-33.55l37.96-14.33l-23.34-33.19l37.73-14.92l-23.86-32.81l37.49-15.51l-24.37-32.44l37.24-16.1l-24.88-32.05l36.98-16.68
	l-25.38-31.65l36.71-17.26l-25.87-31.25l36.44-17.84l-26.36-30.84l36.15-18.41l-26.84-30.42l35.86-18.97l-27.31-30l35.56-19.53
	l-27.78-29.57l35.25-20.09l-28.24-29.13l34.93-20.64l-28.7-28.68l34.6-21.19l-29.14-28.22l34.26-21.73l-29.58-27.76l33.92-22.26
	l-30.02-27.3l33.56-22.79l-30.44-26.82l33.2-23.32l-30.86-26.34l32.83-23.84l-31.27-25.85l32.45-24.35l-31.67-25.36l32.06-24.86
	l-32.06-24.86l31.67-25.36l-32.45-24.35l31.27-25.85l-32.83-23.84l30.86-26.34l-33.2-23.32l30.44-26.82l-33.56-22.79l30.02-27.3
	l-33.92-22.26l29.58-27.76l-34.26-21.73l29.14-28.22l-34.6-21.19l28.7-28.68l-34.93-20.64l28.24-29.13l-35.25-20.09l27.78-29.57
	l-35.56-19.53l27.31-30l-35.86-18.97l26.84-30.42l-36.15-18.41l26.36-30.84l-36.44-17.84l25.87-31.25l-36.71-17.26l25.38-31.65
	l-36.98-16.68l24.88-32.05l-37.24-16.1l24.37-32.44l-37.49-15.51l23.86-32.81l-37.73-14.92l23.34-33.19l-37.96-14.33l22.81-33.55
	l-38.18-13.73l22.29-33.9l-38.39-13.13l21.75-34.25l-38.59-12.52l21.21-34.59l-38.78-11.92l20.66-34.91l-38.96-11.31l20.11-35.23
	l-39.14-10.69l19.56-35.55l-39.3-10.08l19-35.85l-39.45-9.46l18.43-36.14l-39.6-8.84l17.86-36.43l-39.73-8.21l17.29-36.7
	l-39.85-7.59l16.71-36.97l-39.97-6.96l16.12-37.23l-40.07-6.33l15.54-37.48l-40.17-5.7l14.95-37.72l-40.25-5.07l14.35-37.95
	l-40.33-4.44l13.75-38.17l-40.39-3.81l13.15-38.38l-40.45-3.17l12.55-38.58l-40.49-2.53l11.94-38.77l-40.53-1.9l11.33-38.96
	l-40.55-1.26l10.72-39.13l-40.57-0.62l10.1-39.29l-40.57,0.01l9.48-39.45l-40.57,0.65l8.86-39.59l-40.55,1.29l8.24-39.73
	l-40.53,1.92l7.61-39.85l-40.49,2.56l6.99-39.96l-40.44,3.2l6.36-40.07l-40.39,3.83l5.73-40.16l-40.32,4.46l5.1-40.25l-40.25,5.1
	l4.46-40.32l-40.16,5.73l3.83-40.39l-40.07,6.36l3.2-40.44l-39.96,6.99l2.56-40.49l-39.85,7.62l1.92-40.53l-39.73,8.24l1.29-40.55
	l-39.59,8.86l0.65-40.57l-39.45,9.48l0.01-40.57l-39.29,10.1l-0.62-40.57l-39.13,10.72l-1.26-40.55l-38.96,11.33l-1.9-40.53
	l-38.77,11.94l-2.53-40.49l-38.58,12.55l-3.17-40.45l-38.38,13.15l-3.81-40.39l-38.17,13.75l-4.44-40.33l-37.95,14.35l-5.07-40.25
	l-37.72,14.95l-5.7-40.17l-37.48,15.54l-6.33-40.07l-37.23,16.12l-6.96-39.97l-36.97,16.71l-7.59-39.85l-36.7,17.29l-8.21-39.73
	l-36.43,17.86l-8.84-39.6l-36.14,18.43l-9.46-39.45l-35.85,19l-10.08-39.3l-35.55,19.56l-10.69-39.14l-35.23,20.11l-11.31-38.96
	l-34.91,20.66l-11.92-38.78l-34.59,21.21l-12.52-38.59l-34.25,21.75l-13.13-38.39l-33.9,22.28l-13.73-38.18l-33.55,22.81
	l-14.33-37.96l-33.19,23.34l-14.92-37.73l-32.81,23.86l-15.51-37.49l-32.44,24.37l-16.1-37.24l-32.05,24.88l-16.68-36.98
	l-31.65,25.38l-17.26-36.71l-31.25,25.87l-17.84-36.44l-30.84,26.36l-18.41-36.15l-30.42,26.84l-18.97-35.86l-30,27.31l-19.53-35.56
	l-29.57,27.78l-20.09-35.25l-29.13,28.24l-20.64-34.93l-28.68,28.7l-21.19-34.6l-28.22,29.14l-21.73-34.26l-27.76,29.58
	l-22.26-33.92l-27.3,30.02l-22.79-33.56l-26.82,30.44l-23.32-33.2l-26.34,30.86l-23.84-32.83l-25.85,31.27l-24.35-32.45
	l-25.36,31.67l-24.86-32.07l-24.86,32.07l-25.36-31.67l-24.35,32.45l-25.85-31.27l-23.84,32.83l-26.34-30.86l-23.32,33.2
	l-26.82-30.44l-22.79,33.56l-27.3-30.02l-22.26,33.92l-27.76-29.58l-21.73,34.26l-28.22-29.14l-21.19,34.6l-28.68-28.7l-20.64,34.93
	l-29.13-28.24l-20.09,35.25l-29.57-27.78l-19.53,35.56l-30-27.31l-18.97,35.86l-30.42-26.84l-18.41,36.15l-30.84-26.36L333.65-6086
	l-31.25-25.87l-17.26,36.71l-31.65-25.38l-16.68,36.98l-32.05-24.88l-16.1,37.24l-32.44-24.37l-15.51,37.49l-32.81-23.86
	l-14.92,37.73l-33.19-23.34l-14.33,37.96L11.9-6032.4l-13.73,38.18l-33.9-22.28l-13.13,38.39l-34.25-21.75l-12.52,38.59
	l-34.59-21.21l-11.92,38.78l-34.91-20.66l-11.31,38.96l-35.23-20.11l-10.69,39.14l-35.55-19.56l-10.08,39.3l-35.85-19l-9.46,39.45
	l-36.14-18.43l-8.84,39.6l-36.43-17.86l-8.21,39.73l-36.7-17.29l-7.59,39.85l-36.97-16.71l-6.96,39.97l-37.23-16.12l-6.33,40.07
	l-37.48-15.54l-5.7,40.17l-37.72-14.95l-5.07,40.25l-37.95-14.35l-4.44,40.33l-38.17-13.75l-3.81,40.39l-38.38-13.15l-3.17,40.45
	l-38.58-12.55l-2.53,40.49l-38.77-11.94l-1.9,40.53l-38.96-11.33l-1.26,40.55l-39.13-10.72l-0.62,40.57l-39.29-10.1l0.01,40.57
	l-39.45-9.48l0.65,40.57l-39.59-8.86l1.29,40.55l-39.73-8.24l1.92,40.53l-39.85-7.62l2.56,40.49l-39.96-6.99l3.2,40.44l-40.07-6.36
	l3.83,40.39l-40.16-5.73l4.46,40.32l-40.25-5.1l5.1,40.25l-40.32-4.46l5.73,40.16l-40.39-3.83l6.36,40.07l-40.44-3.2l6.99,39.96
	l-40.49-2.56l7.61,39.85l-40.53-1.92l8.24,39.73l-40.55-1.29l8.86,39.59l-40.57-0.65l9.48,39.45l-40.57-0.01l10.1,39.29l-40.57,0.62
	l10.72,39.13l-40.55,1.26l11.33,38.96l-40.53,1.9l11.94,38.77l-40.49,2.53l12.55,38.58l-40.45,3.17l13.15,38.38l-40.39,3.81
	l13.76,38.17l-40.33,4.44l14.35,37.95l-40.25,5.07l14.95,37.72l-40.17,5.7l15.54,37.48l-40.07,6.33l16.12,37.23l-39.97,6.96
	l16.71,36.97l-39.85,7.59l17.29,36.7l-39.73,8.21l17.86,36.43l-39.6,8.84l18.43,36.14l-39.45,9.46l19,35.85l-39.3,10.08l19.56,35.55
	l-39.14,10.69l20.11,35.23l-38.96,11.31l20.66,34.91l-38.78,11.92l21.21,34.59l-38.59,12.52l21.75,34.25l-38.39,13.13l22.29,33.9
	l-38.18,13.73l22.81,33.55l-37.96,14.33l23.34,33.19l-37.73,14.92l23.86,32.81l-37.49,15.51l24.37,32.44l-37.24,16.1l24.88,32.05
	l-36.98,16.68l25.38,31.65l-36.72,17.26l25.87,31.25l-36.44,17.84l26.36,30.84l-36.15,18.41l26.84,30.42l-35.86,18.97l27.31,30
	l-35.56,19.53l27.78,29.57l-35.25,20.09l28.24,29.13l-34.93,20.64l28.7,28.68l-34.6,21.19l29.14,28.22l-34.26,21.73l29.58,27.76
	l-33.92,22.26l30.02,27.3l-33.56,22.79l30.44,26.82l-33.2,23.32l30.86,26.34l-32.83,23.84l31.27,25.85l-32.45,24.35l31.67,25.36
	l-32.07,24.86l32.07,24.86l-31.67,25.36l32.45,24.35l-31.27,25.85l32.83,23.84l-30.86,26.34l33.2,23.32l-30.44,26.82l33.56,22.79
	l-30.02,27.3l33.92,22.26l-29.58,27.76l34.26,21.73l-29.14,28.22l34.6,21.19l-28.7,28.68l34.93,20.64l-28.24,29.13l35.25,20.09
	l-27.78,29.57l35.56,19.53l-27.31,30l35.86,18.97l-26.84,30.42l36.15,18.41l-26.36,30.84l36.44,17.84l-25.87,31.25l36.72,17.26
	l-25.38,31.65l36.98,16.68l-24.88,32.05l37.24,16.1l-24.37,32.44l37.49,15.51l-23.86,32.81l37.73,14.92l-23.34,33.19l37.96,14.33
	l-22.81,33.55l38.18,13.73l-22.29,33.9l38.39,13.13l-21.75,34.25l38.59,12.52l-21.21,34.59l38.78,11.92l-20.66,34.91l38.96,11.31
	l-20.11,35.23l39.14,10.69l-19.56,35.55l39.3,10.08l-19,35.85l39.45,9.46l-18.43,36.14l39.6,8.84l-17.86,36.43l39.73,8.21
	l-17.29,36.7l39.85,7.59l-16.71,36.97l39.97,6.96l-16.12,37.23l40.07,6.33l-15.54,37.48l40.17,5.7l-14.95,37.72l40.25,5.07
	l-14.35,37.95l40.33,4.44l-13.76,38.17l40.39,3.81l-13.15,38.38l40.45,3.17l-12.55,38.58l40.49,2.53l-11.94,38.77l40.53,1.9
	l-11.33,38.96l40.55,1.26l-10.72,39.13l40.57,0.62l-10.1,39.29l40.57-0.01l-9.48,39.45l40.57-0.65l-8.86,39.59l40.55-1.29
	l-8.24,39.73l40.53-1.92l-7.61,39.85l40.49-2.56l-6.99,39.96l40.44-3.2l-6.36,40.07l40.39-3.83l-5.73,40.16l40.32-4.46l-5.1,40.25
	l40.25-5.1l-4.46,40.32l40.16-5.73l-3.83,40.39l40.07-6.36l-3.2,40.44l39.96-6.99l-2.56,40.49l39.85-7.61l-1.92,40.53l39.73-8.24
	l-1.29,40.55l39.59-8.86l-0.65,40.57l39.45-9.48l-0.01,40.57l39.29-10.1l0.62,40.57l39.13-10.72l1.26,40.55l38.96-11.33l1.9,40.53
	l38.77-11.94l2.53,40.49l38.58-12.55l3.17,40.45l38.38-13.15l3.81,40.39l38.17-13.76l4.44,40.33l37.95-14.35l5.07,40.25l37.72-14.95
	l5.7,40.17l37.48-15.54l6.33,40.07l37.23-16.12l6.96,39.97l36.97-16.71l7.59,39.85l36.7-17.29l8.21,39.73l36.43-17.86l8.84,39.6
	l36.14-18.43l9.46,39.45l35.85-19l10.08,39.3l35.55-19.56l10.69,39.14l35.23-20.11l11.31,38.96l34.91-20.66l11.92,38.78l25.79-15.82
	c4.48-2.75,10.35-0.58,11.98,4.42l6.1,18.81c1.64,5.05,7.6,7.2,12.09,4.35l16.69-10.6c4.44-2.82,10.34-0.74,12.04,4.23l6.4,18.71
	c1.72,5.02,7.71,7.08,12.15,4.16l16.52-10.86c4.39-2.89,10.33-0.91,12.11,4.04l6.69,18.61c1.8,5,7.83,6.96,12.22,3.97l16.35-11.12
	c4.35-2.96,10.31-1.07,12.17,3.85l6.98,18.5c1.88,4.97,7.93,6.83,12.28,3.78l16.17-11.38c4.3-3.02,10.3-1.23,12.23,3.66l7.27,18.39
	c1.95,4.94,8.04,6.71,12.33,3.58l15.99-11.63c4.25-3.09,10.28-1.39,12.29,3.47l7.56,18.27c2.03,4.91,8.14,6.58,12.39,3.39
	l15.81-11.88c4.2-3.16,10.25-1.55,12.34,3.27l7.85,18.15c2.11,4.87,8.25,6.45,12.44,3.19l15.62-12.12
	c4.15-3.22,10.23-1.71,12.39,3.08l8.13,18.02c2.18,4.84,8.35,6.32,12.49,3l15.43-12.37c4.1-3.29,10.2-1.88,12.44,2.88l8.41,17.89
	c2.26,4.81,8.44,6.19,12.54,2.8l15.23-12.61c4.05-3.35,10.17-2.03,12.48,2.69l8.69,17.76c2.33,4.77,8.54,6.05,12.58,2.6l15.03-12.85
	c4-3.42,10.14-2.19,12.52,2.49l8.97,17.62c2.41,4.73,8.64,5.92,12.62,2.41L423.43,128c3.94-3.48,10.1-2.35,12.56,2.29l9.25,17.48
	c2.48,4.69,8.73,5.78,12.65,2.21l14.62-13.31c3.89-3.54,10.06-2.51,12.59,2.1l9.52,17.33c2.56,4.65,8.82,5.65,12.69,2.01
	l14.41-13.54c3.83-3.6,10.02-2.67,12.62,1.9l9.79,17.18c2.63,4.61,8.9,5.51,12.72,1.81l14.2-13.77c3.77-3.66,9.98-2.83,12.65,1.7
	l10.06,17.02c2.7,4.57,8.99,5.37,12.74,1.61l13.98-13.99c3.72-3.72,9.93-2.98,12.68,1.5l10.33,16.86c2.77,4.53,9.07,5.22,12.77,1.41
	l13.76-14.2c3.66-3.78,9.88-3.14,12.7,1.3l10.59,16.7c2.84,4.48,9.15,5.08,12.79,1.21l13.53-14.42c3.6-3.83,9.83-3.29,12.72,1.1
	l10.85,16.53c2.91,4.44,9.23,4.94,12.8,1.01l13.3-14.63c3.54-3.89,9.78-3.45,12.73,0.9l11.11,16.36c2.98,4.39,9.31,4.79,12.82,0.81
	l13.07-14.84c3.48-3.94,9.72-3.6,12.75,0.7l11.36,16.18c3.05,4.35,9.38,4.64,12.83,0.61l12.84-15.04c3.41-4,9.67-3.75,12.76,0.5
	l11.62,16c3.12,4.3,9.45,4.5,12.84,0.4l12.6-15.24c3.35-4.05,9.61-3.9,12.76,0.3l11.87,15.82c3.19,4.25,9.52,4.35,12.84,0.2
	l12.36-15.44c3.29-4.1,9.54-4.05,12.77,0.1l12.11,15.63C996.58,200.55,1002.92,200.55,1006.17,196.35z"/>
</svg>
