<?xml version="1.0" encoding="utf-8"?>
<!-- Generator: Adobe Illustrator 24.0.2, SVG Export Plug-In . SVG Version: 6.00 Build 0)  -->
<svg version="1.1" id="Capa_1" xmlns="http://www.w3.org/2000/svg" xmlns:xlink="http://www.w3.org/1999/xlink" x="0px" y="0px"
	 viewBox="0 0 700 700" style="enable-background:new 0 0 700 700;" xml:space="preserve">
<style type="text/css">
	.st0{fill:#FF5200;}
</style>
<g>
	<path class="st0" d="M349.32,31.53c93.77,0,187.54-0.02,281.31,0.01c18.19,0.01,31.3,8.9,36.24,24.41
		c1.35,4.25,1.85,8.63,1.85,13.1c-0.02,187.74,0,375.49-0.04,563.23c0,22.6-14.97,37.66-37.39,37.69
		c-51.43,0.08-102.86-0.05-154.29,0.14c-4.88,0.02-6.29-1.07-6.28-6.15c0.18-78.47,0.17-156.93,0.01-235.4
		c-0.01-4.84,1.48-5.76,5.97-5.72c23.94,0.22,47.88-0.01,71.82,0.21c4.39,0.04,5.85-0.92,6.41-5.57
		c3.48-28.79,7.3-57.55,11.29-86.28c0.66-4.74-1.23-4.97-4.95-4.95c-27.93,0.11-55.86-0.12-83.79,0.21
		c-5.74,0.07-6.86-1.67-6.77-7.04c0.35-19.06-0.02-38.12,0.2-57.18c0.36-30.38,13.7-43.77,43.98-44.21
		c16.18-0.23,32.37-0.22,48.54,0.02c4.34,0.06,6.1-0.58,6.04-5.58c-0.29-25.27-0.22-50.54-0.04-75.8c0.03-3.87-0.79-5.24-4.93-5.53
		c-32.04-2.29-64.06-5.8-96.15-1.03c-50.8,7.56-87.05,44.38-94.87,95.52c-3.44,22.51-2.05,45.11-2.4,67.68
		c-0.14,9.09-0.28,18.19,0.09,27.26c0.19,4.59-1.03,5.92-5.77,5.86c-23.27-0.26-46.55,0.05-69.83-0.24
		c-5.47-0.07-7.55,0.75-7.46,7.04c0.42,27.92,0.34,55.86,0.04,83.78c-0.05,5.13,1.41,6.11,6.23,6.05
		c23.72-0.26,47.44-0.03,71.16-0.21c4.13-0.03,5.62,0.76,5.62,5.33c-0.15,78.91-0.14,157.82-0.02,236.73
		c0.01,4.05-1.01,5.19-5.15,5.18c-99.98-0.12-199.95-0.03-299.93-0.16c-20.97-0.03-35.85-15.21-35.86-36.29
		c-0.06-188.63-0.06-377.26,0-565.89c0.01-22.06,14.89-36.19,37.79-36.21C161.78,31.5,255.55,31.53,349.32,31.53z"/>
</g>
</svg>
