<?xml version="1.0" encoding="utf-8"?>
<!-- Generator: Adobe Illustrator 24.0.2, SVG Export Plug-In . SVG Version: 6.00 Build 0)  -->
<svg version="1.1" id="Capa_1" xmlns="http://www.w3.org/2000/svg" xmlns:xlink="http://www.w3.org/1999/xlink" x="0px" y="0px"
	 viewBox="0 0 700 700" style="enable-background:new 0 0 700 700;" xml:space="preserve">
<style type="text/css">
	.st0{fill:#FF5200;}
</style>
<g>
	<path class="st0" d="M234.13,18.87c76.08,0,152.17,0,228.25,0c1.73,2.5,4.32,1.13,6.45,1.22c23.83,0.99,47.63,2.11,70.92,7.86
		c58.75,14.5,100.76,48.8,123.44,105.41c12.74,31.8,15.67,65.38,15.77,99.22c0.22,75.84,0.22,151.69-0.02,227.53
		c-0.08,24.05-1.31,48.1-6.37,71.74c-12.91,60.3-46.31,104.3-103.58,128.81c-30.71,13.14-63.4,16.07-96.37,17.12
		c-69.81,2.23-139.64,1.59-209.46,0.89c-34.29-0.34-68.76-0.35-102.49-8.53c-54.56-13.23-95.09-44.13-119.3-95.18
		c-13.74-28.98-18.63-60.14-19.62-91.87c-2.75-88.5-2.77-177.01,0-265.51c0.67-21.47,2.93-42.82,8.67-63.65
		c15.41-55.92,49.2-95.76,103.3-117.65c30.13-12.19,61.91-15.11,93.99-16.17C229.83,20.06,232.44,21.45,234.13,18.87z
		 M350.01,619.75c17.41,0,34.82,0.18,52.22-0.04c37.58-0.46,75.32,0.79,112.57-5.2c50.51-8.12,84.17-36.23,97.86-86.39
		c5.58-20.47,6.33-41.55,6.98-62.59c2.07-66.82,1.55-133.67,0.8-200.5c-0.3-26.39-0.65-52.83-4.47-79.09
		c-7.53-51.78-39.21-87.41-89.26-99.62c-23.78-5.8-48.12-6.14-72.36-6.63c-57.8-1.17-115.61-1.08-173.42-0.47
		c-33.06,0.35-66.28-0.6-98.96,5.55c-49.34,9.29-81.64,37.65-94.36,86.9c-5.85,22.65-6.22,45.91-6.86,69.09
		c-1.46,53.29-1.38,106.59-0.87,159.89c0.35,36.93-0.5,73.97,4.69,110.68c4.97,35.14,19.99,64.66,50.35,84.65
		c21.94,14.45,46.91,19.53,72.66,21.23C255.01,620.33,302.52,619.71,350.01,619.75z"/>
	<path class="st0" d="M349.96,518.69c-93.71-0.31-169.66-76.4-169.49-169.78c0.17-93.61,76.33-169.59,169.79-169.39
		c93.81,0.2,169.6,76.12,169.41,169.69C519.49,442.92,443.3,519,349.96,518.69z M349.82,458.93c61.09,0.14,110.17-48.8,110.19-109.9
		c0.03-60.75-48.79-109.69-109.59-109.87c-61.01-0.19-110.18,48.87-110.19,109.91C240.22,409.83,289.05,458.79,349.82,458.93z"/>
	<path class="st0" d="M565.9,172.67c0.05,22.03-17.54,39.67-39.54,39.64c-21.6-0.03-39.33-17.61-39.47-39.16
		c-0.15-22.06,17.31-39.78,39.3-39.88C548.31,133.16,565.85,150.57,565.9,172.67z"/>
</g>
</svg>
