<?xml version="1.0" encoding="utf-8"?>
<!-- Generator: Adobe Illustrator 24.0.2, SVG Export Plug-In . SVG Version: 6.00 Build 0)  -->
<svg version="1.1" id="Capa_1" xmlns="http://www.w3.org/2000/svg" xmlns:xlink="http://www.w3.org/1999/xlink" x="0px" y="0px"
	 viewBox="0 0 700 700" style="enable-background:new 0 0 700 700;" xml:space="preserve">
<style type="text/css">
	.st0{fill:#FF5200;}
</style>
<g>
	<path class="st0" d="M185.61,246.63c-0.29-23.91-2.67-50.77,4.61-76.58c12.31-43.68,39.1-77.1,80.02-96.38
		c63.07-29.72,126.42-28.47,186.7,8.17c33.88,20.59,56.17,51.45,66.09,90.16c5.3,20.68,5.17,42.07,4.38,63.31
		c-0.74,19.88-1.75,39.76-3.37,59.59c-0.56,6.85,2.23,9.56,7.96,11.27c12.76,3.81,24.54,0.05,35.9-5.02
		c9.72-4.34,19.05-4.9,28.68-0.3c14.95,7.14,16.47,19.84,3.44,29.97c-10.66,8.3-23.43,12.09-35.99,16.23
		c-7.16,2.36-14.04,5.2-20.42,9.24c-13.35,8.46-18.92,20.84-12.63,35.27c25.12,57.52,63.5,101.47,126.45,119.04
		c3.6,1.01,7.33,1.56,10.97,2.48c5.96,1.51,7.9,5.32,5.45,10.93c-2.53,5.8-7.55,9.07-12.82,11.98
		c-13.09,7.23-27.45,10.77-41.87,14.04c-7.1,1.61-14.25,3.3-21.47,3.92c-6.68,0.58-9.94,3.96-11.41,9.92
		c-1.8,7.28-3.5,14.58-5.34,21.85c-2.55,10.05-4.8,11.76-14.89,10.2c-17.69-2.73-35.29-5.57-53.36-4.83
		c-18.86,0.77-35.99,6.03-51.54,16.62c-11.86,8.07-23.4,16.69-35.66,24.1c-47.79,28.84-95.33,27.56-142.18-2.44
		c-8.73-5.59-17.37-11.4-25.6-17.7c-25.36-19.43-54.23-23.24-84.81-19.53c-8.32,1.01-16.54,2.83-24.81,4.23
		c-10.49,1.77-13.5-0.11-16.17-10.25c-2.08-7.89-3.99-15.82-6.05-23.7c-1.32-5.04-4.55-7.43-9.86-8.25
		c-19.41-3.02-38.68-6.82-56.92-14.48c-6.54-2.75-12.86-5.98-17.57-11.5c-6.35-7.44-4.33-13.48,5.17-15.42
		c49.77-10.16,85.56-40.01,113.59-80.72c7.9-11.47,14.82-23.51,20.11-36.42c7.48-18.29,2.85-31.58-14.36-41.28
		c-8.9-5.01-18.68-7.79-28.29-11.01c-9.46-3.17-18.63-6.99-26.27-13.61c-11.2-9.7-9.84-21.11,3.31-28.08
		c8.02-4.25,16.12-5.04,24.74-1.04c10.49,4.86,21.52,8.09,33.32,7c2.83-0.26,5.68-0.83,8.42-1.59c5.2-1.44,7.87-4.07,7.28-10.43
		C187.1,280.16,186.62,264.67,185.61,246.63z"/>
</g>
</svg>
