<?xml version="1.0" encoding="utf-8"?>
<!-- Generator: Adobe Illustrator 24.0.2, SVG Export Plug-In . SVG Version: 6.00 Build 0)  -->
<svg version="1.1" id="Capa_1" xmlns="http://www.w3.org/2000/svg" xmlns:xlink="http://www.w3.org/1999/xlink" x="0px" y="0px"
	 viewBox="0 0 700 700" style="enable-background:new 0 0 700 700;" xml:space="preserve">
<style type="text/css">
	.st0{fill:#FF5200;}
</style>
<g>
	<path class="st0" d="M251.27,677.26c-8.77-3.07-18.1-3.1-27.11-4.94c-81.64-16.67-146.49-84.64-159.14-167.1
		c-16.52-107.67,57.5-210.52,164.78-229.14c20.06-3.48,40.12-4.26,60.36-2.3c5.49,0.53,8.23,1.7,8.11,8.57
		c-0.53,31.28-0.31,62.57-0.15,93.85c0.03,5.09-0.21,6.9-6.46,5.27c-63.63-16.59-124.61,33.82-120.68,99.42
		c3.02,50.37,46.19,90.51,97.09,90.28c51.04-0.23,93.91-40.58,95.67-91.33c1.11-31.89,0.57-63.84,0.59-95.76
		c0.08-117.69,0.12-235.39-0.02-353.08c-0.01-5.81,1.4-7.41,7.3-7.35c31.28,0.31,62.57,0.24,93.86,0.04
		c4.47-0.03,5.53,1.23,5.71,5.62c3.4,85.77,72.85,154.81,158.6,157.66c4.99,0.17,6.86,1.19,6.81,6.68
		c-0.28,31.28-0.25,62.57-0.02,93.86c0.04,4.91-1.34,5.92-6.09,5.8c-57.4-1.42-109.13-19.26-155.42-53.09
		c-1-0.73-2.03-1.41-4.01-2.79c0,3.02-0.01,5.22,0,7.42c0.22,75.55,0.43,151.11,0.67,226.66c0.12,37.35-8.17,72.64-27.75,104.57
		c-36.67,59.81-90.22,93.15-160.16,99.95c-1.14,0.11-2.64-0.53-3.16,1.23c-2.13,0-4.26,0-6.39,0c-4.26-2.07-8.51-1.94-12.77,0
		C258.08,677.26,254.68,677.26,251.27,677.26z"/>
	<path class="st0" d="M261.49,677.26c4.26-1.94,8.51-2.07,12.77,0C270,677.26,265.74,677.26,261.49,677.26z"/>
</g>
</svg>
