<?xml version="1.0" encoding="utf-8"?>
<!-- Generator: Adobe Illustrator 24.0.2, SVG Export Plug-In . SVG Version: 6.00 Build 0)  -->
<svg version="1.1" id="Capa_1" xmlns="http://www.w3.org/2000/svg" xmlns:xlink="http://www.w3.org/1999/xlink" x="0px" y="0px"
	 viewBox="0 0 1820 1219.34" style="enable-background:new 0 0 1820 1219.34;" xml:space="preserve">
<style type="text/css">
	.st0{fill:#D76F65;}
	.st1{fill:#473019;}
	.st2{fill:#FF5200;}
	.st3{fill:#FFFFFF;}
	.st4{fill:#FDED30;}
	.st5{opacity:0.5;fill:#D33700;}
	.st6{fill:#6EBBEC;}
	.st7{fill-rule:evenodd;clip-rule:evenodd;fill:#473019;}
	.st8{fill-rule:evenodd;clip-rule:evenodd;fill:#FFEE00;}
	.st9{fill:none;stroke:#070707;stroke-width:8;stroke-miterlimit:10;}
</style>
<g>
	<g>
		<g>
			<path class="st0" d="M58.07,989.23H32.81c-1.91,0-3.22-1.51-2.93-3.38l4.85-31.1c0.29-1.88,2.08-3.4,3.99-3.4H64
				c1.91,0,3.21,1.52,2.92,3.4l-4.87,31.1C61.75,987.71,59.97,989.23,58.07,989.23z"/>
			<path class="st1" d="M1742.69,350.73c-2.55-7.67-5.43-8.54-17.72-8.54h-366.03l-124.58,672.25h471.94
				c11.58,0,17.61-4.21,19.16-12.04l64.8-328.5L1742.69,350.73z"/>
			<path class="st1" d="M1693.97,1008.14c19.91-114.92-57.99-207.73-176.2-207.73c-118.19,0-231.58,92.81-255.64,207.73H1693.97z"/>
			<g>
				<path class="st2" d="M1648.05,1015.67c-18.08,92.54-109.13,167.24-203.43,167.24c-94.29,0-156.76-74.71-139.45-167.24
					c17.39-92.94,108.61-168.6,203.68-168.6C1603.92,847.07,1666.22,922.73,1648.05,1015.67z"/>
				<path class="st3" d="M1570.12,1015.67c-9.78,50.53-59.46,91.4-110.99,91.4c-51.52,0-85.58-40.86-76.03-91.4
					c9.57-50.64,59.31-91.79,111.06-91.79C1545.92,923.88,1579.92,965.03,1570.12,1015.67z"/>
				<path class="st1" d="M1499.98,893.47c-68.89,0-135.08,54.81-147.76,122.2c-12.64,67.18,32.68,121.49,101.16,121.49
					c68.51,0,134.58-54.3,147.63-121.49C1614.1,948.28,1568.9,893.47,1499.98,893.47z M1462.3,1090.5
					c-42.19,0-70.06-33.47-62.22-74.83c7.85-41.43,48.55-75.09,90.89-75.09c42.34,0,70.16,33.66,62.16,75.09
					C1545.14,1057.03,1504.48,1090.5,1462.3,1090.5z"/>
			</g>
			<polygon class="st1" points="1150.6,945.03 126.41,945.03 134.41,894.41 1159.86,894.41 			"/>
			<polygon class="st1" points="1240.79,1014.44 1182.92,1014.44 1312.64,309.63 1371.52,309.63 			"/>
			<g>
				<g>
					<polygon class="st4" points="1253.67,945.03 1241.96,1008.14 52.12,1008.14 62,945.03 					"/>
				</g>
				<polygon class="st1" points="1247.81,976.61 1241.96,1008.14 52.12,1008.14 57.06,976.61 				"/>
			</g>
			<path class="st2" d="M1204.67,896.25c-0.46,2.48-2.99,4.49-5.63,4.49H93.06c-2.65,0-4.47-2.02-4.08-4.49l114.91-732.42
				c0.4-2.56,2.9-4.65,5.6-4.65h1125.95c2.69,0,4.51,2.09,4.04,4.65L1204.67,896.25z"/>
			<g>
				<path class="st4" d="M454.11,416.4h-196.6c-8.77,0-14.76-7.07-13.37-15.79l28.07-176.81c1.4-8.8,9.68-15.94,18.5-15.94h197.58
					c8.82,0,14.79,7.13,13.34,15.93l-29.04,176.82C471.15,409.33,462.88,416.4,454.11,416.4z"/>
			</g>
			<g>
				<g>
					<g>
						<path class="st4" d="M418.76,709.85c-1.16,7.05-7.9,12.78-15.05,12.78H208.99c-7.14,0-12.04-5.72-10.92-12.78l0,0
							c1.12-7.07,7.84-12.8,14.99-12.8H407.9C415.05,697.05,419.92,702.78,418.76,709.85L418.76,709.85z"/>
					</g>
					<g>
						<path class="st4" d="M410.4,760.92c-1.16,7.05-7.89,12.76-15.03,12.76H200.84c-7.14,0-12.03-5.71-10.91-12.76l0,0
							c1.12-7.03,7.83-12.75,14.97-12.75h194.65C406.7,748.17,411.56,753.88,410.4,760.92L410.4,760.92z"/>
					</g>
					<g>
						<path class="st4" d="M402.04,811.88c-1.15,7.02-7.88,12.72-15.01,12.72H192.74c-7.13,0-12.02-5.7-10.9-12.72l0,0
							c1.12-7.03,7.82-12.73,14.95-12.73H391.2C398.33,799.15,403.19,804.84,402.04,811.88L402.04,811.88z"/>
					</g>
				</g>
			</g>
			<polygon class="st5" points="822.79,381.2 633.42,381.2 670.72,159.18 861.11,159.18 			"/>
			<path class="st1" d="M506.69,1014.44c16.56-114.88-64-207.67-182.19-207.67c-118.18,0-228.86,92.79-249.58,207.67H506.69z"/>
			<g>
				<path class="st2" d="M461.92,1016.46c-15.4,92.53-104.29,167.23-198.58,167.23c-94.29,0-158.91-74.7-144.29-167.23
					c14.69-92.95,103.72-168.6,198.78-168.6C412.9,847.85,477.39,923.51,461.92,1016.46z"/>
				<path class="st3" d="M383.99,1016.46c-8.31,50.52-56.8,91.38-108.34,91.38c-51.51,0-86.76-40.87-78.67-91.38
					c8.1-50.64,56.66-91.8,108.4-91.8C357.14,924.65,392.32,965.81,383.99,1016.46z"/>
				<path class="st1" d="M310.3,894.25c-68.9,0-133.49,54.81-144.22,122.2c-10.7,67.18,36.18,121.47,104.68,121.47
					c68.51,0,133-54.3,144.11-121.47C426.01,949.06,379.22,894.25,310.3,894.25z M278.33,1091.27c-42.19,0-71.02-33.46-64.39-74.82
					c6.65-41.44,46.37-75.09,88.71-75.09c42.34,0,71.15,33.65,64.35,75.09C360.22,1057.81,320.52,1091.27,278.33,1091.27z"/>
			</g>
			<g>
				<polygon class="st2" points="1711.9,709.84 1323.2,709.84 1384.36,381.2 1696.6,381.2 1727.92,627.89 				"/>
				<polygon class="st6" points="1684.49,684.25 1353.89,684.25 1405.64,407.17 1670.86,407.17 1697.96,615.1 				"/>
				<g>
					<polygon class="st3" points="1573.99,407.17 1448.23,684.25 1483.22,684.25 1609.21,407.17 					"/>
					<polygon class="st3" points="1536.84,407.05 1411.35,684.25 1434.63,684.28 1559.77,407.17 					"/>
				</g>
			</g>
			<g>
				<g>
					<path class="st4" d="M1782.08,748.17h-51.03c-3.97,0-7.85,3.2-8.61,7.11l-13.44,68.59c-0.76,3.9,1.86,7.09,5.82,7.09h50.93
						L1782.08,748.17z"/>
				</g>
				<path class="st0" d="M1765.38,767.2c-0.27,0.95-1.18,1.71-1.84,0.1h-30.47c-1.28,1.61-1.91,0.86-0.04-0.1l1.55-7.89
					c-1.5-0.95-0.57-1.72,0.99-4.77h30.48c0.37,3.05,0.99,3.82,0.88,4.77L1765.38,767.2z"/>
			</g>
		</g>
	</g>
	<g>
		<path class="st7" d="M1065.58,675.87c-24.88-31.07-91.54,3.87-91.54,3.87c-16.1,7.77-29.57,11.71-45,14.46
			c-4.11,0-6.63-3.02-5.09-6.05c12.24-34.46,46.68-60.84,51.47-99.46c37.93-14.51,76.07-30.51,111.96-50.3
			c23.76-19.45,46.7-34.31,70.28-52.57l25.73-23.65c49.74-52.25,90.22-121.11,67.59-183.99c-20.17-48.58-68.27-69.28-123.06-70.32
			c-117.75,3.09-219.38,74.44-318.26,149.66C700.6,451.96,599.23,552.04,532.25,663.84c-24.66,49.58-58.3,104.13-38.19,155.48
			c7.03,19.11,26.64,30.16,49.12,30.16c82.71-6.03,137.16-91.61,187.98-149.18c22.46-23.3,45.83-51.67,75.32-67.9
			c3.08,0,1.52,3.03,0.99,6.07c-26.92,54.73-92.65,103.25-81.39,168.78c7.58,27.15,36.15,39.19,65.24,42.22
			c62.96,1.99,134.38-19.85,170.51-44.06C981.56,792.22,1094.93,712.52,1065.58,675.87L1065.58,675.87z M964.77,409.92
			c30.41-31.84,69.13-63.7,107.2-80.18c4.33-1.05,6.89,2.05,6.34,5.15c-15.07,38.05-50.7,69.89-84.12,95.54
			c-28.03,18.44-54.25,32.77-84.05,44.02C924.54,450.93,947.39,432.48,964.77,409.92L964.77,409.92z"/>
		<g>
			<path class="st8" d="M552.28,808.08c-2.84,0-5.43-0.42-7.93-1.28c-11.2-7.14-16.73-20.06-14.45-33.72
				c17.84-76.53,68.42-139.27,121.98-205.69l2.25-2.79c47.51-51.59,88.43-94.02,125.08-129.7c5.22-4.43,10.45-8.88,15.68-13.34
				c59.75-50.89,121.53-103.51,191.17-136.73c45.21-24.35,93.96-38.31,133.76-38.31c41.84,0,71.83,14.9,89.14,44.3
				c22.42,60-26.24,122.22-71.02,163.83c-59.06,52.14-129.38,87.49-209,105.06l-0.18,0.04l-0.11,0.15c-3.61,4.78-0.15,9.2,2.91,13.1
				c1.81,2.31,3.52,4.49,3.85,6.62c0.09,17.73-11.33,33.03-22.38,47.83c-6.48,8.68-13.19,17.66-17.5,27.06
				c-11.76,20.25-29.56,50.92-11.8,68.37c8.44,7.67,18.59,11.39,31.05,11.39c17.92,0,37.26-7.56,58.86-16.7
				c0.33-0.17,28.97-15.34,41.5-15.34c2.29,0,3.87,0.51,4.71,1.51c0.71,0.85,0.93,2.13,0.63,3.79
				c-3.04,17.02-50.5,47.72-50.98,48.03c-57.35,35.19-111.48,52.3-165.45,52.3c-0.01,0,0,0-0.01,0c-2.49,0-5.01-0.04-7.5-0.11
				c-10.96-2.83-24.62-8.72-27.62-20.77c-1.84-15.72,6.42-29.49,14.41-42.8c2.61-4.35,5.31-8.85,7.61-13.34
				c19.48-27.19,35.15-53.66,51.75-81.68l1.99-3.36l0.02-0.05c0.6-1.89,1.3-3.92,2.04-6.07c4.95-14.38,11.12-32.27,1.02-42.19
				c-7.74-8.05-16.04-12.13-24.64-12.13c-2.22,0-4.49,0.27-6.76,0.81c-34.52,6.26-62.15,35.54-86.53,61.37
				c-3.57,3.78-6.94,7.36-10.35,10.88c-14.63,15.12-28.46,31.73-41.83,47.8c-28.86,34.68-58.71,70.53-99.02,94.55
				c-1.36,0.49-2.82,1.06-4.3,1.64C567.13,805.19,559.69,808.08,552.28,808.08z M1089.53,285.81c-1.19,0-2.43,0.04-3.66,0.13
				c-64.26,12.9-116.3,67.82-162.21,116.28c-5.79,6.11-11.26,11.89-16.79,17.62c-5.8,7.18-11.78,14.39-17.56,21.37
				c-23.24,28.05-47.27,57.05-63.4,88.18l-0.04,0.07l-0.01,0.08c-0.12,0.68,0,1.25,0.35,1.7c0.79,1.03,2.57,1.2,4.45,1.38
				c1.15,0.11,2.34,0.22,3.24,0.53l0.12,0.04l0.13-0.02c108.86-19.97,201.07-73.11,259.65-149.63
				c18.23-25.91,35.31-55.88,23.94-81.81C1113.04,291.46,1103.02,285.81,1089.53,285.81z"/>
			<path d="M1119.82,247.02c19.54,0,36.76,3.37,51.17,10.03c15.92,7.34,28.53,18.77,37.49,33.95
				c22.29,59.8-26.24,121.8-70.86,163.27c-59,52.09-129.25,87.41-208.78,104.95l-0.36,0.08l-0.22,0.29
				c-3.84,5.09-0.25,9.67,2.92,13.71c1.75,2.23,3.4,4.33,3.74,6.32c0.06,17.6-11.29,32.81-22.28,47.53
				c-6.49,8.69-13.2,17.68-17.53,27.11c-11.86,20.43-29.74,51.27-11.68,69c8.52,7.75,18.78,11.51,31.37,11.51
				c18.01,0,37.4-7.58,59.05-16.74l0.04-0.02l0.04-0.02c0.29-0.15,28.82-15.26,41.22-15.26c2.13,0,3.59,0.45,4.33,1.33
				c0.62,0.74,0.79,1.87,0.52,3.38c-3,16.8-50.28,47.39-50.74,47.69c-27.05,16.6-53.97,29.38-80.01,37.98
				c-28.61,9.46-57.28,14.25-85.2,14.25c-2.47,0-4.96-0.04-7.43-0.11c-10.8-2.79-24.22-8.58-27.19-20.33
				c-1.8-15.59,6.4-29.26,14.34-42.48c2.6-4.34,5.3-8.82,7.59-13.31c19.51-27.25,35.18-53.7,51.76-81.71l1.97-3.32l0.06-0.1
				l0.03-0.11c0.6-1.89,1.3-3.91,2.04-6.06c4.74-13.75,11.22-32.57,0.92-42.69c-7.85-8.16-16.27-12.29-25.02-12.29
				c-2.25,0-4.55,0.27-6.85,0.81c-34.7,6.31-62.38,35.64-86.81,61.52c-3.57,3.78-6.94,7.35-10.35,10.88
				c-14.64,15.13-28.48,31.75-41.86,47.82c-28.82,34.62-58.62,70.42-98.81,94.4c-1.42,0.53-2.88,1.1-4.3,1.65
				c-7.16,2.78-14.56,5.65-21.87,5.65c-2.76,0-5.29-0.4-7.71-1.23c-10.98-7.03-16.41-19.72-14.18-33.16
				c8-34.3,23.67-69.28,47.91-106.95c21.7-33.71,48.27-66.67,73.97-98.54l2.23-2.77c47.5-51.58,88.41-94,125.04-129.66
				c5.24-4.44,10.46-8.89,15.68-13.34c59.72-50.87,121.48-103.47,191.1-136.67c20.48-11.03,42.8-20.34,64.56-26.92
				C1075.67,250.83,1098.87,247.02,1119.82,247.02 M833.99,533.71l0.26-0.05c50.83-9.32,98.18-25.82,140.73-49.04
				c47.94-26.16,88.06-60.07,119.25-100.81c8.15-11.59,17.22-25.36,22.7-39.7c6.25-16.36,6.67-30.29,1.27-42.6
				c-4.79-10.44-14.97-16.2-28.67-16.2c-1.21,0-2.45,0.05-3.7,0.13l-0.06,0l-0.06,0.01c-64.36,12.92-116.45,67.9-162.41,116.41
				c-5.79,6.11-11.26,11.89-16.79,17.62l-0.03,0.03l-0.03,0.03c-5.77,7.14-11.75,14.36-17.53,21.34
				c-23.25,28.07-47.3,57.09-63.45,88.26l-0.07,0.14l-0.03,0.15c-0.14,0.82,0.01,1.52,0.44,2.09c0.92,1.21,2.81,1.38,4.8,1.57
				c1.12,0.11,2.28,0.21,3.12,0.51L833.99,533.71 M1119.82,246.02c-44.73,0-95.23,17.49-133.97,38.35
				c-75.66,36.09-140.46,93.71-206.98,150.15c-42.07,40.95-84.76,85.91-125.12,129.75C600.47,630.36,547.53,695.22,529.41,773
				c-2.36,14.1,3.63,27.21,14.72,34.26c2.69,0.94,5.41,1.33,8.15,1.33c9.05,0,18.23-4.29,26.61-7.39
				c59.15-35.25,94.89-94.83,140.95-142.43c27.46-28.4,57.38-64.99,96.64-72.11c2.3-0.54,4.51-0.79,6.64-0.79
				c9.79,0,17.86,5.3,24.3,11.99c11.4,11.19,1.35,33.53-3.19,47.75c-17.41,29.38-33.46,56.72-53.73,85.02
				c-9.3,18.19-24.54,35.33-22.06,56.49c3.01,12.1,16.29,18.13,28.03,21.15c2.53,0.08,5.05,0.11,7.57,0.11
				c58.74,0,114.06-20.67,165.73-52.38c0,0,48.09-30.94,51.21-48.36c0.76-4.27-1.7-5.89-5.84-5.89c-12.8,0-41.69,15.38-41.69,15.38
				v0c-19.44,8.22-40.11,16.66-58.66,16.66c-11.26,0-21.74-3.11-30.7-11.25c-17.48-17.17,0.14-47.55,11.9-67.8
				c11.64-25.37,40.07-46.72,39.92-75.18c-0.97-6.1-12.23-12.23-6.86-19.34c73.84-16.29,145.54-48.95,209.23-105.18
				c49.63-46.12,92.68-106.74,71.11-164.45C1190.3,258.15,1157.06,246.02,1119.82,246.02L1119.82,246.02z M834.07,532.68
				c-2.92-1.02-8.24,0-7.71-3.06c20.12-38.82,51.92-73.58,80.88-109.44c50.49-52.37,106.76-119.3,178.67-133.74
				c1.23-0.09,2.44-0.13,3.63-0.13c12.94,0,22.98,5.21,27.76,15.61c11.75,26.78-7.25,57.66-23.88,81.31
				C1027.48,469.36,928.7,515.32,834.07,532.68L834.07,532.68z"/>
		</g>
	</g>
</g>
<line class="st9" x1="6.11" y1="95.14" x2="769.9" y2="95.14"/>
<line class="st9" x1="362.31" y1="39.57" x2="836.11" y2="39.57"/>
<line class="st9" x1="1302.67" y1="1103.26" x2="538.88" y2="1103.26"/>
<line class="st9" x1="916.47" y1="1161.82" x2="442.67" y2="1161.82"/>
</svg>
