<?xml version="1.0" encoding="utf-8"?>
<!-- Generator: Adobe Illustrator 24.0.2, SVG Export Plug-In . SVG Version: 6.00 Build 0)  -->
<svg version="1.1" id="Capa_1" xmlns="http://www.w3.org/2000/svg" xmlns:xlink="http://www.w3.org/1999/xlink" x="0px" y="0px"
	 viewBox="0 0 700 700" style="enable-background:new 0 0 700 700;" xml:space="preserve">
<style type="text/css">
	.st0{fill:#FF5200;}
</style>
<g>
	<path class="st0" d="M34.05,667.75c8.51-31.11,16.72-61.1,24.93-91.09c6.18-22.58,12.26-45.18,18.62-67.71
		c1-3.55,0.49-6.3-1.21-9.37c-30.26-54.43-44.32-113.04-38.76-174.85c11.07-123.11,72.76-213.57,184.7-265.8
		C353.78-2.4,505.84,34.26,597.65,146.61c54.61,66.84,77.39,144.16,69.5,230.05c-11.66,126.82-100.47,235.41-222.39,271.93
		c-82.4,24.68-162.1,16.78-238.68-22.35c-3.16-1.62-5.91-1.9-9.42-0.98C144.77,639,92.84,652.55,40.92,666.14
		C39.04,666.63,37.13,667.03,34.05,667.75z M109.85,592.91c30.91-8.15,60.79-15.87,90.56-24.02c6.22-1.7,11.1-1.01,16.67,2.31
		c58.13,34.64,120.76,45.86,186.98,32.71C545.75,575.79,638.11,437.8,610.8,296.36C584.05,157.8,450.93,64.12,312.36,86.52
		c-51.02,8.25-96.19,29.3-134.55,64.03c-53.67,48.61-83.08,109.35-87.33,181.6c-3.38,57.39,11.48,110.34,42.75,158.58
		c2.39,3.69,2.86,6.87,1.7,11.01C126.57,531.71,118.41,561.73,109.85,592.91z"/>
	<path class="st0" d="M192.31,273.92c-0.28-25.48,10.16-47.16,28.82-65.22c5.8-5.62,12.69-8.7,20.92-8.45
		c4.2,0.13,8.45,0.56,12.6,0.11c9.56-1.03,14.93,3.9,18.31,12.01c8.67,20.76,17.28,41.55,25.96,62.3c2.06,4.92,1.4,9.43-1.4,13.86
		c-5.91,9.38-12.76,18.08-19.91,26.5c-4.58,5.39-4.73,10.26-1.18,16.21c25.79,43.26,61.75,74.58,108.62,93.28
		c6.44,2.57,11.54,1.5,15.88-3.93c7.87-9.85,16.12-19.41,23.65-29.51c4.39-5.88,9.32-7.87,16-5.15
		c23.11,9.41,45.23,20.91,67.47,32.17c3.86,1.96,5,5.27,4.91,9.35c-0.77,33.82-10.63,50.25-46.73,65.33
		c-20.39,8.52-41.46,6.41-62.43,0.57c-76.09-21.2-132.13-69.07-176.98-132.12c-14.06-19.76-26.45-40.19-32.09-64.11
		C193,289.76,192.16,282.33,192.31,273.92z"/>
</g>
</svg>
